<?xml version="1.0" encoding="utf-8"?>
<!DOCTYPE svg PUBLIC "-//W3C//DTD SVG 1.1//EN" "http://www.w3.org/Graphics/SVG/1.1/DTD/svg11.dtd">
<svg version="1.1" xmlns="http://www.w3.org/2000/svg" xmlns:xlink="http://www.w3.org/1999/xlink" x="0px" y="0px" viewBox="0 0 1000 1000" enable-background="new 0 0 1000 1000" xml:space="preserve">
<g style="fill: #333;"><g transform="translate(0.000000,511.000000) scale(0.100000,-0.100000)"><path d="M1345.4,4985.4c-214.9-94-493.2-671.6-617.9-1278c-48-232.2-48-886.5-1.9-1103.4c113.2-510.4,669.7-1149.4,1235.8-1414.2c184.2-86.3,170.8-136.2-145.8-546.9C1385.7,88.4,1145.8-308.8,975.1-748.2C769.7-1272.1,670-1828.5,687.2-2342.8c7.7-218.8,17.3-276.3,67.2-422.1c32.6-94,101.7-239.9,153.5-326.2c115.1-193.8,395.3-481.7,610.2-623.6c474-314.7,1109.1-523.8,1876.7-617.9c147.8-17.3,182.3-30.7,297.4-103.6c330-213,723.4-328.1,1193.5-351.2c493.1-23,1032.3,111.3,1423.8,355c113.2,71,138.2,78.7,427.9,119c1216.6,168.9,2064.7,648.6,2419.7,1372c126.7,257.1,145.8,353.1,155.4,734.9c13.4,477.8-38.4,852-174.6,1276.1C8951.9-360.6,8669.8,107.6,8117.2,758.1c-122.8,143.9-180.4,228.4-190,276.3c-5.8,36.5-9.6,69.1-5.8,72.9c3.8,1.9,61.4,32.6,130.5,67.2c585.3,293.6,1111,900,1224.2,1410.4c46.1,216.8,46.1,871.2-1.9,1103.4c-132.4,648.6-424.1,1226.2-650.5,1285.7c-157.4,44.1-214.9,5.8-491.2-322.4c-216.8-259.1-351.2-376.1-665.9-573.8c-364.6-232.2-577.6-418.3-713.8-623.6l-48-71l-99.8,57.6c-378,224.5-811.7,347.3-1333.6,379.9c-736.9,44.1-1375.8-84.4-1874.8-379.9l-99.8-57.6l-48,71c-138.2,209.2-333.9,379.9-736.9,637.1c-316.6,201.5-464.4,333.9-658.2,583.3c-172.7,222.6-237.9,287.8-312.8,316.6C1470.1,5018.1,1416.4,5016.1,1345.4,4985.4z M1585.3,4377.2c67.2-84.4,182.3-211.1,257.1-280.2c122.8-113.2,220.7-184.2,644.8-458.6c149.7-95.9,431.7-364.6,477.8-452.9c25-49.9,23-55.6-80.6-168.9c-205.3-220.7-379.9-500.8-514.3-821.3c-69.1-166.9-190-546.9-190-600.6c0-82.5-80.6-53.7-326.2,119c-261,184.2-529.6,485.5-656.3,734.9c-90.2,180.4-119,343.5-117,702.3c0,349.2,34.5,568,142,892.3c59.5,180.4,203.4,489.3,226.4,489.3C1456.7,4532.6,1518.1,4463.5,1585.3,4377.2z M8656.4,4331.1c86.4-180.4,170.8-437.5,222.6-681.2c34.6-161.2,42.2-264.8,42.2-518.1c1.9-358.8-26.8-521.9-117-702.3c-163.1-324.3-548.8-708.1-884.6-878.8c-69.1-36.5-97.9-23-97.9,48c0,51.8-122.8,437.5-190,596.8c-134.3,320.4-310.8,600.6-510.4,819.4c-57.6,61.4-105.5,120.9-105.5,130.5c0,38.4,216.8,276.3,339.6,376.1c71,57.6,230.3,166.9,351.2,243.7c293.6,184.2,502.8,364.6,685,583.3C8562.3,4555.6,8547,4557.5,8656.4,4331.1z M5605.3,3390.8c957.5-172.7,1548.5-767.6,1821-1836.4c36.4-140.1,80.6-353.1,97.9-474c17.3-120.9,40.3-239.9,49.9-266.7c9.6-25,111.3-155.4,224.5-289.8c642.8-754.1,924.9-1270.3,1066.9-1963c76.7-372.3,86.3-907.6,21.1-1128.3c-124.7-412.6-500.8-800.2-997.8-1026.6c-356.9-163.1-898-303.2-1372-355c-205.3-23-255.2-40.3-403-142c-120.9-80.6-379.9-190-585.3-243.7c-151.6-40.3-214.9-46.1-537.3-46.1c-320.5,0-385.7,5.7-533.5,44.1c-234.1,63.3-401,134.3-598.7,261c-94,59.5-180.4,107.4-191.9,107.4s-119,11.5-239.9,26.9c-1051.5,130.5-1822.9,497-2166.4,1028.5c-166.9,257.1-207.2,462.5-174.6,878.9c40.3,525.8,161.2,978.6,383.8,1433.4C1614.1-306.9,1817.5,2.1,2147.5,430c145.8,186.1,270.6,360.8,280.2,385.7c9.6,25,32.6,143.9,49.9,264.8c147.8,1009.3,560.3,1719.3,1199.3,2066.6c247.5,132.4,573.7,232.2,901.9,272.5C4791.7,3444.6,5401.9,3429.2,5605.3,3390.8z"/><path d="M3882.2,857.9c-245.6-86.4-330-408.7-163.1-614.1c120.9-145.8,299.3-180.4,474-94c147.8,74.8,203.4,166.9,203.4,343.5c0,120.9-7.7,147.8-55.6,216.8c-63.3,92.1-214.9,176.5-316.6,176.5C3985.8,884.8,3922.5,873.3,3882.2,857.9z"/><path d="M5812.6,838.7c-61.4-30.7-117-78.7-151.6-128.6c-48-69.1-55.7-95.9-55.7-216.8c0-176.5,55.7-268.6,203.4-343.5c174.6-86.4,353.1-51.8,474,94c172.7,211.1,72.9,550.7-184.2,623.6C5987.2,898.2,5918.1,890.5,5812.6,838.7z"/><path d="M4659.3-303c-811.7-84.5-1421.9-447.1-1680.9-997.8c-94-197.6-126.7-339.6-140.1-577.6c-34.5-662,280.2-1180.1,913.4-1494.8c660.1-328.1,1650.2-353.1,2358.3-57.6c261,109.4,450.9,234.1,627.5,412.6c293.6,295.5,431.8,633.2,431.8,1057.3c0,410.6-140.1,756.1-422.2,1045.8c-284,289.7-662,475.9-1166.7,573.7C5346.3-295.4,4906.9-276.2,4659.3-303z M5259.9-713.7c558.4-34.6,1093.8-297.4,1331.7-656.3c170.8-259,213-687,99.8-988.2c-203.4-531.5-842.4-861.6-1671.3-863.5c-454.8-1.9-761.8,63.3-1111,234.1c-435.6,214.9-660.1,560.3-660.1,1024.7c0,623.6,424.1,1051.5,1199.3,1210.8c157.3,30.7,498.9,63.3,591,53.7C5066.1-702.1,5165.9-707.9,5259.9-713.7z"/><path d="M4177.7-1337.3c-193.8-180.4-209.2-627.5-28.8-827c80.6-88.3,151.6-109.4,243.7-69.1c71,28.8,151.6,143.9,188.1,264.8c32.6,113.2,23,343.5-21.1,462.4C4478.9-1293.2,4306.2-1216.4,4177.7-1337.3z"/><path d="M5549.7-1341.2c-94-82.5-147.7-234.1-147.7-418.3c0-167,19.2-239.9,88.3-360.7c94-159.3,241.8-176.5,360.7-46.1c92.1,103.6,119,191.9,119,404.9c0,161.2-5.8,195.7-53.7,291.7C5820.3-1275.9,5680.2-1226,5549.7-1341.2z"/></g></g>
</svg>
